<svg width="100" height="20" viewBox="0 0 100 20" fill="none" xmlns="http://www.w3.org/2000/svg"><path d="M72.25 9.51v8.01c-.22.3-.55.64-.98 1.03-.42.39-.98.72-1.68 1.02-.68.28-1.52.43-2.5.43q-1.3 0-2.36-.5-.01-.01-.02-.01c-.71-.34-1.32-.85-1.83-1.54-.5-.69-.89-1.56-1.15-2.59q-.4-1.56-.4-3.7V8.35q0-2.12.37-3.68c.26-1.05.64-1.92 1.13-2.62.49-.69 1.07-1.21 1.75-1.55s1.45-.5 2.31-.5c1.18 0 2.15.24 2.91.73s1.34 1.22 1.73 2.18c.4.96.63 2.14.71 3.54h-3.06c-.05-.82-.16-1.46-.33-1.93-.17-.46-.4-.79-.7-.98-.31-.21-.7-.31-1.18-.31-.42 0-.78.09-1.09.28-.31.18-.57.47-.78.88s-.37.94-.47 1.58-.15 1.42-.15 2.35v3.34c0 .92.06 1.7.17 2.35q.18.975.51 1.59c.23.41.52.71.87.89s.76.27 1.24.27c.38 0 .69-.05.92-.15.23-.09.41-.2.55-.3q.21-.18.36-.27v-3.58h-2.26V9.51zm-65.12 5.1c0-.35-.03-.66-.08-.95-.05-.28-.15-.55-.32-.79-.16-.24-.39-.48-.7-.72s-.7-.49-1.19-.75c-.59-.3-1.15-.62-1.7-.96a8 8 0 0 1-1.48-1.2q-.07-.07-.14-.15-.56-.63-.91-1.45Q.23 6.7.23 5.45q0-1.23.36-2.24.37-1 1.04-1.71.36-.39.79-.68.37-.25.77-.42Q4.1.01 5.22.01q1.22 0 2.17.5.23.12.44.27.23.16.44.34.8.71 1.28 1.79.62 1.35.62 3.1H7.01c0-.56-.06-1.04-.19-1.46q-.19-.64-.6-1-.07-.06-.15-.12-.37-.24-.91-.24-.55 0-.93.25-.04.03-.07.06c-.26.19-.46.46-.59.81q-.18.51-.18 1.15 0 .48.18.87c.13.25.31.47.53.68.23.19.49.39.79.57.31.19.65.37 1.02.55q1.07.52 1.89 1.15c.55.41 1.01.87 1.37 1.39.37.51.65 1.08.83 1.72.19.64.29 1.37.29 2.19a6.8 6.8 0 0 1-.35 2.22c-.22.66-.55 1.23-.98 1.71-.44.47-.96.84-1.57 1.1q-.91.39-2.03.39c-.73 0-1.42-.13-2.07-.38-.65-.26-1.22-.64-1.72-1.16-.49-.53-.87-1.19-1.15-1.99Q0 15.25 0 13.6h3.16c0 .58.05 1.09.14 1.51q.14.61.44.98.15.19.34.34.17.12.37.21c.29.12.61.18.98.18.42 0 .75-.1 1-.3.25-.19.43-.46.54-.79q.16-.49.16-1.12M19.5.28h3.15v13.36c0 1.49-.22 2.71-.67 3.66-.44.93-1.05 1.62-1.82 2.05q-.05.03-.09.05-1.14.6-2.58.6c-1.01 0-1.91-.22-2.7-.65q-.17-.09-.33-.2-.94-.66-1.5-1.85c-.44-.95-.65-2.17-.65-3.66V.28h3.15v13.36c0 .84.08 1.49.23 1.95.16.45.39.76.68.93.3.16.68.24 1.12.24s.81-.08 1.1-.24c.29-.17.52-.48.67-.93q.24-.69.24-1.95zm10.93 12.59h-2.2v6.86h-3.16V.28h5.36q1.27 0 2.26.52.25.14.48.3c.76.56 1.35 1.32 1.75 2.29.41.96.62 2.06.62 3.31 0 1.26-.21 2.35-.62 3.27-.4.92-.99 1.63-1.75 2.14l-.22.14q-1.07.62-2.52.62m9.62-9.35v4.64h4.94v3.14h-4.94v5.19h5.86v3.24h-9.03V.28h9.01v3.24zM48.54.28h5.05c1.05 0 1.95.22 2.69.66q1.11.675 1.71 1.98c.4.87.59 1.95.59 3.23 0 1.05-.11 1.95-.34 2.7q-.345 1.11-.99 1.86c-.28.33-.6.61-.95.85l2.77 7.98v.19h-3.38l-2.38-7.14h-1.6v7.14h-3.17zm27.56 0 2.39 8.76L80.87.28h3.45l-4.24 12.38v7.07h-3.19v-7.07L72.66.28zm9.68 0h3.9l3.21 13.3 3.2-13.3H100v19.45h-3.05V13.1l.2-6.76-3.08 13.39H91.7L88.66 7.37l.18 5.73v6.63h-3.06zM28.23 9.63h2.2c.45 0 .82-.13 1.1-.38s.49-.59.62-1.03q.2-.66.2-1.49 0-.84-.21-1.56c-.13-.49-.33-.89-.61-1.19-.28-.31-.64-.46-1.1-.46h-2.2zm23.48-.28h1.79c.43 0 .79-.12 1.07-.35.29-.24.5-.57.64-1q.22-.66.22-1.53c0-.61-.07-1.14-.2-1.57q-.18-.67-.59-1.02l-.14-.1q-.37-.26-.91-.26h-1.88z" fill="#FFFFFF" fill-rule="evenodd"/></svg>
