<svg xmlns="http://www.w3.org/2000/svg" width="120" height="120" fill="none"><defs><linearGradient id="a" x1="23.729" x2="109.153" y1="0" y2="156.522" gradientUnits="userSpaceOnUse"><stop stop-color="#ED0233"/><stop offset="1" stop-color="#003EB7"/></linearGradient></defs><path fill="url(#a)" d="M0 0h120v120H0z"/><path fill="#FFF" fill-rule="evenodd" d="M59.44 97c-4.02 0-7.51-.62-10.46-1.86-2.95-1.23-5.21-3.42-6.77-6.55C40.73 85.46 40 81.06 40 75.38v-4.2h12.06v5.18c0 3.46.32 6.14.98 8.03.66 1.9 1.56 3.22 2.71 3.96 1.15.66 2.46.99 3.94.99 2.38 0 4.26-.79 5.66-2.35 1.48-1.65 2.21-4.7 2.21-9.14 0-3.3-.49-5.77-1.47-7.42-.99-1.64-2.55-2.96-4.68-3.95-2.05-1.07-4.72-2.26-8-3.58-2.71-1.24-5.05-2.68-7.02-4.33-1.96-1.64-3.44-3.74-4.43-6.3q-1.47-3.825-1.47-9.51c0-4.61.57-8.36 1.72-11.24q1.845-4.455 6.15-6.42c2.88-1.4 6.73-2.1 11.57-2.1q9.36 0 14.28 4.32c3.28 2.8 4.92 6.92 4.92 12.35v8.53H67.56v-5.07c0-3.79-.61-6.5-1.84-8.15-1.15-1.73-3.04-2.6-5.66-2.6-2.71 0-4.68.83-5.91 2.47-1.15 1.57-1.72 4.08-1.72 7.54 0 2.97.57 5.27 1.72 6.92 1.15 1.56 2.62 2.8 4.43 3.71 1.89.9 3.81 1.72 5.78 2.47 3.7 1.4 6.69 2.84 8.99 4.32s3.98 3.46 5.04 5.93c1.07 2.47 1.61 5.97 1.61 10.5 0 5.19-.87 9.31-2.59 12.35-1.64 2.97-4.02 5.11-7.14 6.43Q65.725 97 59.44 97"/></svg>